<svg id="Layer_1" data-name="Layer 1" xmlns="http://www.w3.org/2000/svg" viewBox="0 0 303.58 298.8"><defs><style>.cls-1{stroke:#fff;stroke-miterlimit:10;}</style></defs><path class="cls-1" d="M383.73,330.74A134.44,134.44,0,0,1,271.09,540.55a148.88,148.88,0,1,0-124-183.14,134.45,134.45,0,0,1,236.64-26.67Z" transform="translate(-137.45 -243.69)"/><path class="cls-1" d="M161.08,481.49a134.26,134.26,0,0,0,110,59.06c-37.68-17-68.8-34-93.41-70.3s-29.59-68.91-30.59-112.84A134.3,134.3,0,0,0,161.08,481.49Z" transform="translate(-137.45 -243.69)"/><path class="cls-1" d="M322.73,438.73" transform="translate(-137.45 -243.69)"/><path d="M379.91,350.82a35,35,0,0,0-13.83-11.45,37.55,37.55,0,0,0-33.74,1.05c-7.76,4.29-13.6,11.21-18,18.77a104.8,104.8,0,0,0-5.9,12c-3,6.93-5.59,3.83-9.3-.76-8.81-10.91-20.31-20-33.72-24.1s-28.82-2.72-40.28,5.35c-10.63,7.49-17,19.94-19.42,32.7-2,10.68-1.55,22,2.72,32,6.18,14.46,19.45,24.63,33.11,32.43,21,12,56.16,23.53,53.57,53.58-.71,8.22-2.31,18.33-7.75,24.81,11-1.58,21.28-12.36,25.64-22.37,11.7-26.82-6.52-42.11-27.51-54.42-12.75-7.47-26.09-13.89-38.54-21.87-7.92-5.07-13.33-10.69-15.53-20-4.45-18.78,7.85-43,30-40.73,5.28.55,10.17,3.11,14.41,6.3,8.11,6.12,14.05,14.49,19.79,22.74,2.78,4,5.38,8.62,8.74,12.17,2.75,2.9,4.55,1,6.44-2.18,8.24-14,14.11-37.87,31.06-41.79,8.67-2,17.76-2.24,24.31,4.83,14.67,15.84,4.71,38.83,5.39,57.25,3-1.34,4-4.76,5.52-8.08a121.35,121.35,0,0,0,6.66-17.8C388.46,384.74,389.69,364.66,379.91,350.82Z" transform="translate(-137.45 -243.69)"/></svg>